<?xml version="1.0" encoding="UTF-8" standalone="no"?>
<svg
   width="98"
   height="96"
   version="1.1"
   id="svg982"
   sodipodi:docname="github-mark.svg"
   inkscape:version="1.2.2 (b0a8486541, 2022-12-01)"
   xmlns:inkscape="http://www.inkscape.org/namespaces/inkscape"
   xmlns:sodipodi="http://sodipodi.sourceforge.net/DTD/sodipodi-0.dtd"
   xmlns="http://www.w3.org/2000/svg"
   xmlns:svg="http://www.w3.org/2000/svg">
  <defs
     id="defs986" />
  <sodipodi:namedview
     id="namedview984"
     pagecolor="#ffffff"
     bordercolor="#666666"
     borderopacity="1.0"
     inkscape:showpageshadow="2"
     inkscape:pageopacity="0.0"
     inkscape:pagecheckerboard="0"
     inkscape:deskcolor="#d1d1d1"
     showgrid="false"
     inkscape:zoom="3.623483"
     inkscape:cx="49.951939"
     inkscape:cy="65.268693"
     inkscape:window-width="1138"
     inkscape:window-height="1024"
     inkscape:window-x="6"
     inkscape:window-y="27"
     inkscape:window-maximized="1"
     inkscape:current-layer="svg982" />
  <path
     fill-rule="evenodd"
     clip-rule="evenodd"
     d="m 48.791556,6.8708032 c -22.298164,0 -40.3240611,18.1587868 -40.3240611,40.6236818 0,17.957388 11.5498131,33.157943 27.5724661,38.537896 2.003244,0.404446 2.737024,-0.874097 2.737024,-1.949593 0,-0.94178 -0.06603,-4.169918 -0.06603,-7.53342 -11.217178,2.421722 -13.553058,-4.842617 -13.553058,-4.842617 -1.802672,-4.708079 -4.473665,-5.918115 -4.473665,-5.918115 -3.671376,-2.488578 0.267429,-2.488578 0.267429,-2.488578 4.07252,0.269079 6.20948,4.169917 6.20948,4.169917 3.604519,6.187194 9.412855,4.438998 11.74956,3.362677 0.333462,-2.62312 1.402353,-4.438997 2.537278,-5.447636 -8.946505,-0.94178 -18.359359,-4.438997 -18.359359,-20.043172 0,-4.438999 1.601275,-8.070756 4.138553,-10.895272 -0.400319,-1.008638 -1.802672,-5.179381 0.401144,-10.761558 0,0 3.404773,-1.07632 11.081812,4.169918 a 38.769008,38.769008 0 0 1 10.081432,-1.3454 c 3.404772,0 6.875577,0.471303 10.080602,1.3454 7.677865,-5.246238 11.082638,-4.169918 11.082638,-4.169918 2.203816,5.582177 0.800637,9.75292 0.400319,10.761558 2.604134,2.824516 4.139378,6.456273 4.139378,10.895272 0,15.604175 -9.412855,19.033709 -18.426217,20.043172 1.469212,1.277718 2.737025,3.698615 2.737025,7.532595 0,5.447636 -0.06603,9.819777 -0.06603,11.164352 0,1.076321 0.734606,2.354864 2.737025,1.951244 C 77.498946,80.651604 89.048759,65.451873 89.048759,47.494485 89.114791,25.02959 71.022862,6.8708032 48.791556,6.8708032 Z"
     fill="#24292f"
     id="path980"
     style="stroke-width:0.8254" />
</svg>
